<svg xmlns="http://www.w3.org/2000/svg" width="20" height="20" viewBox="0 0 20 20" fill="none">
<path d="M9.56522 0.0102539C6.74423 0.132537 4.22555 1.42839 2.47962 3.42058C4.75204 4.58226 6.34341 6.88186 6.49966 9.56528H9.56522V0.0102539ZM10.4348 0.0102539V9.56528H13.5003C13.6566 6.88186 15.248 4.58226 17.5204 3.42058C15.7745 1.42839 13.2558 0.132537 10.4348 0.0102539ZM1.92256 4.11521C0.794839 5.65903 0.0985081 7.53403 0.0101929 9.56528H5.6301C5.47045 7.15529 3.99966 5.10536 1.92256 4.11521ZM18.0774 4.11521C16.0003 5.10536 14.5296 7.15529 14.3699 9.56528H19.9881C19.9015 7.53403 19.2052 5.65903 18.0774 4.11521ZM0.0101929 10.4348C0.0985081 12.4661 0.794839 14.3411 1.92256 15.8849C3.99966 14.8948 5.47045 12.8448 5.6301 10.4348H0.0101929ZM6.49966 10.4348C6.34171 13.1183 4.75204 15.4179 2.47962 16.5812C4.22385 18.5717 6.74423 19.8676 9.56522 19.9882V10.4348H6.49966ZM10.4348 10.4348V19.9882C13.2558 19.8676 15.7745 18.5717 17.5204 16.5812C15.248 15.4179 13.6566 13.1183 13.5003 10.4348H10.4348ZM14.3699 10.4348C14.5296 12.8448 16.0003 14.8948 18.0774 15.8849C19.2052 14.3411 19.9015 12.4661 19.9881 10.4348H14.3699Z" fill="#ABABAB"/>
</svg>