<svg xmlns="http://www.w3.org/2000/svg" width="20" height="18" viewBox="0 0 20 18" fill="none">
<path d="M20.223 2.04627C19.4787 2.394 18.6791 2.628 17.8399 2.73355C18.697 2.19355 19.3542 1.33855 19.6638 0.319091C18.8627 0.819 17.9744 1.18227 17.0287 1.37864C16.2719 0.530182 15.1939 0 14.0008 0C11.7094 0 9.85211 1.95464 9.85211 4.36418C9.85211 4.70618 9.88944 5.04 9.95944 5.35827C6.51156 5.17664 3.45489 3.43882 1.40778 0.797727C1.05156 1.44245 0.847 2.19191 0.847 2.99291C0.847 4.50655 1.57889 5.84264 2.69189 6.62482C2.01211 6.60191 1.372 6.40555 0.812778 6.07909C0.812778 6.09791 0.812778 6.11509 0.812778 6.13391C0.812778 8.24891 2.24233 10.0129 4.14089 10.413C3.79322 10.5128 3.42611 10.566 3.04733 10.566C2.78056 10.566 2.52 10.5382 2.26722 10.4883C2.79533 12.222 4.32756 13.4845 6.14289 13.5196C4.72344 14.6905 2.93456 15.3884 0.990111 15.3884C0.655667 15.3884 0.325111 15.3679 0 15.327C1.83633 16.5649 4.01644 17.2874 6.35989 17.2874C13.9914 17.2874 18.1634 10.6372 18.1634 4.86982C18.1634 4.68082 18.1596 4.49264 18.1518 4.30527C18.963 3.68918 19.6669 2.92091 20.223 2.04627Z" fill="#ABABAB"/>
</svg>