<svg xmlns="http://www.w3.org/2000/svg" width="10" height="10" viewBox="0 0 10 10" fill="none">
<path d="M3.5294 9.99997C5.47864 9.99997 7.0588 8.4198 7.0588 6.47056C7.0588 4.52133 5.47864 2.94116 3.5294 2.94116C1.58017 2.94116 0 4.52133 0 6.47056C0 8.4198 1.58017 9.99997 3.5294 9.99997Z" fill="#66BD90"/>
<path opacity="0.3" fill-rule="evenodd" clip-rule="evenodd" d="M3.41211 1.76612C4.02216 0.710399 5.1632 0 6.47016 0C8.4194 0 9.99956 1.58017 9.99956 3.5294C9.99956 4.83637 9.28916 5.97741 8.23344 6.58746C8.23439 6.54861 8.23486 6.50965 8.23486 6.47057C8.23486 3.87159 6.12797 1.7647 3.52899 1.7647C3.48992 1.7647 3.45096 1.76518 3.41211 1.76612Z" fill="#66BD90"/>
</svg>